<?xml version="1.0" encoding="utf-8"?>
<!-- Generator: Adobe Illustrator 19.0.0, SVG Export Plug-In . SVG Version: 6.00 Build 0)  -->
<svg version="1.1" id="图层_1" xmlns="http://www.w3.org/2000/svg" xmlns:xlink="http://www.w3.org/1999/xlink" x="0px" y="0px"
	 viewBox="-392 244 14 14" style="enable-background:new -392 244 14 14;" xml:space="preserve">
<style type="text/css">
	.st0{fill:#E57373;}
</style>
<title>icon-error</title>
<desc>Created with Sketch.</desc>
<path class="st0" d="M-385,244c-3.9,0-7,3.1-7,7s3.1,7,7,7s7-3.1,7-7S-381.1,244-385,244z M-381.5,254.5c-0.4,0.4-1,0.4-1.4,0
	l-2.1-2.1l-2.1,2.1c-0.4,0.4-1,0.4-1.4,0c-0.4-0.4-0.4-1,0-1.4l2.1-2.1l-2.1-2.1c-0.4-0.4-0.4-1,0-1.4c0.4-0.4,1-0.4,1.4,0l2.1,2.1
	l2.1-2.1c0.4-0.4,1-0.4,1.4,0c0.4,0.4,0.4,1,0,1.4l-2.1,2.1l2.1,2.1C-381.1,253.5-381.1,254.1-381.5,254.5z"/>
</svg>
